<svg xmlns="http://www.w3.org/2000/svg" viewBox="0 0 64 64">
  <defs>
    <radialGradient id="bg" cx="50%" cy="35%" r="70%">
      <stop offset="0%" stop-color="#5d3315"/>
      <stop offset="100%" stop-color="#1f1107"/>
    </radialGradient>
  </defs>
  <rect width="64" height="64" rx="14" fill="url(#bg)"/>
  <path d="M18 22 26 9l6 12 6-12 8 13-3 4H21z" fill="#6a3b17"/>
  <circle cx="32" cy="35" r="18" fill="#f6ecd9"/>
  <path d="M17 33c2 11 11 18 15 18s13-7 15-18c-3 5-9 8-15 8s-12-3-15-8Z" fill="#6a3b17"/>
  <ellipse cx="24" cy="31" rx="5.5" ry="7" fill="#198dff"/>
  <ellipse cx="40" cy="31" rx="5.5" ry="7" fill="#198dff"/>
  <ellipse cx="24" cy="31" rx="1.8" ry="4.2" fill="#111"/>
  <ellipse cx="40" cy="31" rx="1.8" ry="4.2" fill="#111"/>
  <circle cx="26" cy="28" r="1.2" fill="#fff"/>
  <circle cx="42" cy="28" r="1.2" fill="#fff"/>
  <path d="M29 39c1.3-1.5 4.7-1.5 6 0-1.6 1.5-4.4 1.5-6 0Z" fill="#ef9cb4"/>
  <path d="M21 40h-8M21 43H11M43 40h8M43 43h10" stroke="#f7f3ea" stroke-linecap="round" stroke-width="2"/>
</svg>
